<svg xmlns="http://www.w3.org/2000/svg" width="37.355" height="43.173" viewBox="0 0 37.355 43.173">
  <path id="Path_29" data-name="Path 29" d="M71.011,18.449a.843.843,0,1,0,0-1.686H67.817v-2.3h3.194a.843.843,0,0,0,0-1.686H67.817V11.4a.843.843,0,0,0-.247-.6l-2.438-2.44a.843.843,0,0,0-.6-.247h-1.38V4.926a.843.843,0,0,0-1.686,0V8.117h-2.3V4.926a.843.843,0,0,0-1.686,0V8.117H55.193V5.1a5.1,5.1,0,0,0-10-1.383,7.606,7.606,0,0,0-6.823,7.566,7.636,7.636,0,0,0,.576,2.907,8.385,8.385,0,0,0,0,14.8,7.608,7.608,0,0,0,6.248,10.471,5.1,5.1,0,0,0,10-1.38V35.053h2.294v3.194a.843.843,0,0,0,1.686,0V35.053h2.3v3.194a.843.843,0,0,0,1.686,0V35.053h1.38a.843.843,0,0,0,.6-.247l2.438-2.438a.843.843,0,0,0,.247-.6V30.39h3.194a.843.843,0,0,0,0-1.686H67.817V26.41h3.194a.843.843,0,0,0,0-1.686H67.817v-2.3h3.194a.843.843,0,0,0,0-1.686H67.817V18.449ZM50.1,41.486a3.425,3.425,0,0,1-3.149-2.1,7.487,7.487,0,0,0,4.019-2.127.843.843,0,1,0-1.205-1.18,5.781,5.781,0,0,1-1.726,1.212,5.72,5.72,0,0,1-2.164.52A5.921,5.921,0,0,1,40.809,29a.843.843,0,0,0-.421-1.2,6.7,6.7,0,0,1,0-12.429.843.843,0,0,0,.422-1.2,5.923,5.923,0,0,1,5.063-8.816,5.78,5.78,0,0,1,3.888,1.733.843.843,0,1,0,1.208-1.177,7.429,7.429,0,0,0-2.231-1.57,7.51,7.51,0,0,0-1.789-.56A3.41,3.41,0,0,1,53.507,5.1V15.433H50.882L48.644,13.2a2.993,2.993,0,1,0-1.194,1.191l2.485,2.485a.9.9,0,0,0,.6.247h2.974v3.622H48.222a2.992,2.992,0,1,0,0,1.686h5.284V26.05H50.532c-.023,0-.042,0-.06,0a.84.84,0,0,0-.537.244l-2.485,2.487a2.991,2.991,0,0,0-4.424,2.627,2.992,2.992,0,1,0,5.618-1.436l2.237-2.239h2.625v10.34A3.413,3.413,0,0,1,50.1,41.486ZM47.323,11.763a1.305,1.305,0,1,1-.382-.923A1.3,1.3,0,0,1,47.323,11.763Zm-.665,9.822a1.3,1.3,0,1,1-1.306-1.3A1.307,1.307,0,0,1,46.658,21.585Zm.665,9.825a1.291,1.291,0,0,1-.382.92,1.307,1.307,0,0,1-1.847,0,1.3,1.3,0,0,1,0-1.842,1.307,1.307,0,0,1,1.846,0h0A1.3,1.3,0,0,1,47.323,31.411Zm18.808.012-1.944,1.944H55.193v-2.5h7.6a.843.843,0,0,0,.843-.843V25.369a.843.843,0,0,0-1.686,0v3.813H55.193V13.991h6.752v3.8a.843.843,0,1,0,1.686,0V13.148a.843.843,0,0,0-.843-.843h-7.6V9.8h8.993l1.945,1.946Z" transform="translate(-34.5)" fill="#21243d"/>
</svg>
