<svg id="_1674883" data-name="1674883" xmlns="http://www.w3.org/2000/svg" width="35.147" height="35.149" viewBox="0 0 35.147 35.149">
  <path id="Path_16" data-name="Path 16" d="M185.36,181.429a.521.521,0,0,0,.535-.006l4.7-2.949a.515.515,0,0,0,.241-.436v-4.867a.508.508,0,0,0,.006-.076.515.515,0,0,0-.242-.437l-4.708-2.942a.515.515,0,0,0-.546,0l-4.708,2.942a.523.523,0,0,0-.242.438v4.942a.515.515,0,0,0,.242.436l4.708,2.949Zm.776-1.373v-3.733l3.673-2.295v3.725Zm-.515-9.3,3.734,2.333-3.734,2.336-3.737-2.335Zm-4.193,3.264,3.679,2.3v3.734l-3.679-2.3Zm0,0" transform="translate(-168.048 -157.992)" fill="#21243d"/>
  <path id="Path_17" data-name="Path 17" d="M.742,8.841,5.45,11.79a.523.523,0,0,0,.547,0l4.7-2.949A.515.515,0,0,0,10.94,8.4V3.538a.5.5,0,0,0,.006-.075.515.515,0,0,0-.242-.437L6,.084A.515.515,0,0,0,5.45.957l4.007,2.5L5.723,5.8,1.986,3.462,3.724,2.376A.515.515,0,0,0,3.179,1.5L.742,3.026A.522.522,0,0,0,.5,3.462V8.4a.515.515,0,0,0,.242.436Zm.788-4.45.082.051,3.6,2.247v3.734L1.53,8.12Zm4.708,6.032V6.69L9.911,4.395V8.12Zm0,0" transform="translate(-0.5 -0.002)" fill="#21243d"/>
  <path id="Path_18" data-name="Path 18" d="M360.538,8.892l4.708,2.949a.523.523,0,0,0,.546,0l4.7-2.949a.515.515,0,0,0,.241-.436V3.589a.5.5,0,0,0,.006-.076.515.515,0,0,0-.242-.437L365.793.134a.515.515,0,0,0-.546,0l-4.708,2.942a.522.522,0,0,0-.242.437V8.455a.515.515,0,0,0,.242.436Zm.788-4.45L365,6.74v3.734l-3.679-2.3Zm4.708,6.032V6.74l3.673-2.295V8.171Zm-.515-9.3,3.734,2.333L365.52,5.848l-3.737-2.335Zm0,0" transform="translate(-335.596 -0.052)" fill="#21243d"/>
  <path id="Path_19" data-name="Path 19" d="M10.705,342.24,6,339.3a.515.515,0,0,0-.546,0L.742,342.24a.522.522,0,0,0-.242.437v4.942a.515.515,0,0,0,.242.437L5.451,351A.524.524,0,0,0,6,351l4.7-2.949a.515.515,0,0,0,.241-.436v-4.867a.539.539,0,0,0,.006-.075.515.515,0,0,0-.242-.437Zm-4.981-1.9,3.734,2.333-3.734,2.337-3.737-2.335ZM1.53,343.605l.082.051,3.6,2.248v3.734l-3.679-2.3Zm4.708,6.032V345.9l3.673-2.295v3.725Zm0,0" transform="translate(-0.501 -315.932)" fill="#21243d"/>
  <path id="Path_20" data-name="Path 20" d="M370.5,342.24l-4.708-2.942a.515.515,0,0,0-.546,0l-4.708,2.942a.522.522,0,0,0-.242.437v4.942a.515.515,0,0,0,.242.437L365.247,351a.519.519,0,0,0,.788-.436V345.9l3.673-2.295v3.725l-1.984,1.244a.515.515,0,0,0,.547.872l2.225-1.4a.515.515,0,0,0,.241-.436v-4.866a.51.51,0,0,0-.236-.512Zm-4.981-1.9,3.734,2.333-3.734,2.337-3.737-2.335Zm-4.194,3.264,3.679,2.3v3.734l-3.679-2.3Zm0,0" transform="translate(-335.596 -315.932)" fill="#21243d"/>
  <path id="Path_21" data-name="Path 21" d="M182.478,76.08h9.2a.515.515,0,0,0,0-1.029h-9.2A.515.515,0,0,0,182.478,76.08Zm0,0" transform="translate(-169.521 -69.899)" fill="#21243d"/>
  <path id="Path_22" data-name="Path 22" d="M192.178,422.027h-9.2a.515.515,0,0,0,0,1.03h9.2A.515.515,0,0,0,192.178,422.027Zm0,0" transform="translate(-169.988 -393.055)" fill="#21243d"/>
  <path id="Path_23" data-name="Path 23" d="M428.473,204.413v6.137a.515.515,0,0,0,1.029,0v-6.137A.515.515,0,0,0,428.473,204.413Zm0,0" transform="translate(-399.092 -189.916)" fill="#21243d"/>
  <path id="Path_24" data-name="Path 24" d="M69.492,204.745v6.138a.515.515,0,1,0,1.03,0v-6.138A.515.515,0,0,0,69.492,204.745Zm0,0" transform="translate(-64.756 -190.226)" fill="#21243d"/>
  <path id="Path_25" data-name="Path 25" d="M328.219,154.9l-2.32,1.535a.519.519,0,0,0,.285.944.512.512,0,0,0,.283-.086l2.32-1.535A.515.515,0,0,0,328.219,154.9Zm0,0" transform="translate(-303.351 -144.183)" fill="#21243d"/>
  <path id="Path_26" data-name="Path 26" d="M141.2,157.294a.511.511,0,0,0,.283.086.519.519,0,0,0,.285-.944l-2.32-1.535a.515.515,0,0,0-.568.859Zm0,0" transform="translate(-129.17 -144.183)" fill="#21243d"/>
  <path id="Path_27" data-name="Path 27" d="M139.2,327.368a.511.511,0,0,0,.283-.086l2.32-1.535a.515.515,0,0,0-.568-.859l-2.32,1.535A.519.519,0,0,0,139.2,327.368Zm0,0" transform="translate(-129.201 -302.502)" fill="#21243d"/>
  <path id="Path_28" data-name="Path 28" d="M325.867,325.746l2.32,1.535a.511.511,0,0,0,.283.086.519.519,0,0,0,.285-.944l-2.32-1.535A.515.515,0,0,0,325.867,325.746Zm0,0" transform="translate(-303.319 -302.501)" fill="#21243d"/>
</svg>
