<svg id="_921540" data-name="921540" xmlns="http://www.w3.org/2000/svg" width="35.149" height="35.149" viewBox="0 0 35.149 35.149">
  <g id="Group_15" data-name="Group 15">
    <g id="Group_14" data-name="Group 14">
      <path id="Path_33" data-name="Path 33" d="M32.752,30.241a2.4,2.4,0,0,0,2.4-2.4V3.433A3.436,3.436,0,0,0,31.717,0H3.433A3.436,3.436,0,0,0,0,3.433V27.844a2.4,2.4,0,0,0,2.4,2.4h.761v3.535H.687a.687.687,0,0,0,0,1.373H34.463a.687.687,0,0,0,0-1.373H31.991V30.241ZM1.373,3.433a2.062,2.062,0,0,1,2.06-2.06H31.717a2.062,2.062,0,0,1,2.06,2.06v1.51H1.442c-.023,0-.046,0-.069,0ZM7.552,33.776H4.531V27.6H7.552Zm7.689,0H12.22V20.007H15.24Zm7.689,0H19.909V25.813h3.021ZM31.3,17.609H26.911a.687.687,0,0,0-.687.687v3.467a.687.687,0,0,0,1.373,0v-2.78h3.021V33.776H27.6v-7.4a.687.687,0,0,0-1.373,0v7.4H24.3v-8.65a.687.687,0,0,0-.687-.687H19.222a.687.687,0,0,0-.687.687v8.65H16.613V19.32a.687.687,0,0,0-.687-.687H11.533a.687.687,0,0,0-.687.687V33.776H8.925V26.911a.687.687,0,0,0-.687-.687H3.844a.687.687,0,0,0-.687.687v1.957H2.4a1.025,1.025,0,0,1-1.024-1.024V6.312c.023,0,.046,0,.069,0H33.776V27.844a1.025,1.025,0,0,1-1.024,1.024h-.761V18.3A.687.687,0,0,0,31.3,17.609Z" fill="#21243d"/>
    </g>
  </g>
  <g id="Group_17" data-name="Group 17" transform="translate(14.558 2.471)">
    <g id="Group_16" data-name="Group 16">
      <path id="Path_34" data-name="Path 34" d="M228.262,36H212.752a.687.687,0,1,0,0,1.373h15.511a.687.687,0,0,0,0-1.373Z" transform="translate(-212.065 -36)" fill="#21243d"/>
    </g>
  </g>
  <g id="Group_19" data-name="Group 19" transform="translate(6.453 2.471)">
    <g id="Group_18" data-name="Group 18">
      <path id="Path_35" data-name="Path 35" d="M95.172,36.2a.686.686,0,1,0,.2.485A.692.692,0,0,0,95.172,36.2Z" transform="translate(-94 -36)" fill="#21243d"/>
    </g>
  </g>
  <g id="Group_21" data-name="Group 21" transform="translate(3.707 2.471)">
    <g id="Group_20" data-name="Group 20">
      <path id="Path_36" data-name="Path 36" d="M55.172,36.2a.686.686,0,1,0,.2.485A.692.692,0,0,0,55.172,36.2Z" transform="translate(-54 -36)" fill="#21243d"/>
    </g>
  </g>
  <g id="Group_23" data-name="Group 23" transform="translate(9.199 2.471)">
    <g id="Group_22" data-name="Group 22">
      <path id="Path_37" data-name="Path 37" d="M135.172,36.2a.686.686,0,1,0,.2.485A.691.691,0,0,0,135.172,36.2Z" transform="translate(-134 -36)" fill="#21243d"/>
    </g>
  </g>
  <g id="Group_25" data-name="Group 25" transform="translate(26.225 23.522)">
    <g id="Group_24" data-name="Group 24">
      <path id="Path_38" data-name="Path 38" d="M383.172,342.841a.686.686,0,1,0,.2.485A.689.689,0,0,0,383.172,342.841Z" transform="translate(-382 -342.64)" fill="#21243d"/>
    </g>
  </g>
  <g id="Group_27" data-name="Group 27" transform="translate(3.524 9.332)">
    <g id="Group_26" data-name="Group 26">
      <path id="Path_39" data-name="Path 39" d="M76.92,135.939a2.47,2.47,0,0,0-2,3.921l-4.56,4.56a2.465,2.465,0,0,0-2.279-.056L63.319,139.6a2.472,2.472,0,1,0-4.265.106L55,143.763a2.473,2.473,0,1,0,.971.971l4.1-4.1a2.466,2.466,0,0,0,2.275-.058l4.715,4.715a2.471,2.471,0,1,0,4.268.1l4.682-4.682a2.471,2.471,0,1,0,.907-4.77ZM53.807,147.026a1.1,1.1,0,1,1,1.1-1.1A1.1,1.1,0,0,1,53.807,147.026Zm7.348-7.517a1.1,1.1,0,1,1,1.1-1.1A1.1,1.1,0,0,1,61.155,139.509Zm8.012,8.174a1.1,1.1,0,1,1,1.1-1.1A1.1,1.1,0,0,1,69.167,147.682Zm7.753-8.174a1.1,1.1,0,1,1,1.1-1.1A1.1,1.1,0,0,1,76.92,139.509Z" transform="translate(-51.336 -135.939)" fill="#21243d"/>
    </g>
  </g>
  <g id="Group_29" data-name="Group 29" transform="translate(9.011 8.651)">
    <g id="Group_28" data-name="Group 28">
      <path id="Path_40" data-name="Path 40" d="M132.432,126.221a.686.686,0,1,0,.2.485A.693.693,0,0,0,132.432,126.221Z" transform="translate(-131.26 -126.02)" fill="#21243d"/>
    </g>
  </g>
  <g id="Group_31" data-name="Group 31" transform="translate(3.158 8.651)">
    <g id="Group_30" data-name="Group 30">
      <path id="Path_41" data-name="Path 41" d="M49.982,126.021h-3.3a.687.687,0,1,0,0,1.373h3.3a.687.687,0,1,0,0-1.373Z" transform="translate(-46 -126.021)" fill="#21243d"/>
    </g>
  </g>
  <g id="Group_33" data-name="Group 33" transform="translate(3.158 11.947)">
    <g id="Group_32" data-name="Group 32">
      <path id="Path_42" data-name="Path 42" d="M49.982,174.021h-3.3a.687.687,0,1,0,0,1.373h3.3a.687.687,0,1,0,0-1.373Z" transform="translate(-46 -174.021)" fill="#21243d"/>
    </g>
  </g>
</svg>
