<svg id="_686589" data-name="686589" xmlns="http://www.w3.org/2000/svg" width="43.205" height="28.377" viewBox="0 0 43.205 28.377">
  <g id="Group_3" data-name="Group 3" transform="translate(0 0)">
    <g id="Group_2" data-name="Group 2">
      <path id="Path_31" data-name="Path 31" d="M43.182,74.734A40.329,40.329,0,0,0,42,66.931a29.948,29.948,0,0,0-2.422-6.565c-3.767-6.619-7.857-5.6-12.754-4.305a35.052,35.052,0,0,1-4.951.969h-.538a35.052,35.052,0,0,1-4.951-.969c-4.9-1.238-8.987-2.314-12.754,4.359a27.434,27.434,0,0,0-2.422,6.565,40.33,40.33,0,0,0-1.184,7.8,14.663,14.663,0,0,0,.753,6.135A4.078,4.078,0,0,0,3.36,83.345,5.262,5.262,0,0,0,6.8,82.968a25.294,25.294,0,0,0,6.888-4.9c1.668-1.614,4.789-2.422,7.911-2.422s6.242.807,7.911,2.422a25.294,25.294,0,0,0,6.888,4.9,5.63,5.63,0,0,0,3.444.377,4.021,4.021,0,0,0,2.583-2.475A14.389,14.389,0,0,0,43.182,74.734ZM40.6,80.116a2.134,2.134,0,0,1-1.292,1.345,3.716,3.716,0,0,1-2.206-.269,21.946,21.946,0,0,1-6.242-4.467c-2.045-2.045-5.65-3.067-9.256-3.067s-7.211,1.022-9.31,2.96a22.36,22.36,0,0,1-6.242,4.467,3.338,3.338,0,0,1-2.206.269,2.134,2.134,0,0,1-1.292-1.345,12.725,12.725,0,0,1-.538-5.166,37.12,37.12,0,0,1,1.13-7.426,25.678,25.678,0,0,1,2.26-6.081c2.96-5.328,6.4-4.467,10.494-3.39a31.568,31.568,0,0,0,5.274,1.022h.807a31.178,31.178,0,0,0,5.328-1.022c4.09-1.022,7.534-1.937,10.494,3.39a24.814,24.814,0,0,1,2.26,6.081,40.731,40.731,0,0,1,1.13,7.426A12.452,12.452,0,0,1,40.6,80.116Z" transform="translate(0 -55.109)" fill="#21243d"/>
    </g>
  </g>
  <g id="Group_5" data-name="Group 5" transform="translate(5.566 5.364)">
    <g id="Group_4" data-name="Group 4">
      <path id="Path_32" data-name="Path 32" d="M52.459,98.748a3.27,3.27,0,0,0-1.937-.915,3.062,3.062,0,0,0-.861-1.883l-.054-.054a3.048,3.048,0,0,0-2.206-.915,3.177,3.177,0,0,0-2.206.915,3.128,3.128,0,0,0-.915,1.937,3.206,3.206,0,0,0-1.937.861l-.054.054a3.048,3.048,0,0,0-.915,2.206,3.177,3.177,0,0,0,.915,2.206,3,3,0,0,0,1.991.915,2.871,2.871,0,0,0,.915,1.937,3.048,3.048,0,0,0,2.206.915,3.177,3.177,0,0,0,2.206-.915,3.27,3.27,0,0,0,.915-1.937,2.871,2.871,0,0,0,1.937-.915,3.048,3.048,0,0,0,.915-2.206A3.177,3.177,0,0,0,52.459,98.748Zm-1.345,3.014a1.1,1.1,0,0,1-.807.323h-.753a1.022,1.022,0,0,0-1.022,1.022v.7a1.13,1.13,0,1,1-2.26,0v-.753a1.022,1.022,0,0,0-1.022-1.022h-.753a1.1,1.1,0,0,1-.807-1.883l.054-.054a1.286,1.286,0,0,1,.753-.269h.753A1.022,1.022,0,0,0,46.27,98.8v-.753a1.142,1.142,0,0,1,1.937-.807l.054.054a1.286,1.286,0,0,1,.269.753V98.8a1.022,1.022,0,0,0,1.022,1.022h.753a1.142,1.142,0,0,1,.807,1.937Z" transform="translate(-41.373 -94.981)" fill="#21243d"/>
    </g>
  </g>
  <g id="Group_7" data-name="Group 7" transform="translate(29.083 5.633)">
    <g id="Group_6" data-name="Group 6">
      <ellipse id="Ellipse_1" data-name="Ellipse 1" cx="1.883" cy="1.883" rx="1.883" ry="1.883" fill="#21243d"/>
    </g>
  </g>
  <g id="Group_9" data-name="Group 9" transform="translate(29.083 13.275)">
    <g id="Group_8" data-name="Group 8">
      <ellipse id="Ellipse_2" data-name="Ellipse 2" cx="1.883" cy="1.883" rx="1.883" ry="1.883" fill="#21243d"/>
    </g>
  </g>
  <g id="Group_11" data-name="Group 11" transform="translate(25.262 9.454)">
    <g id="Group_10" data-name="Group 10">
      <ellipse id="Ellipse_3" data-name="Ellipse 3" cx="1.883" cy="1.883" rx="1.883" ry="1.883" fill="#21243d"/>
    </g>
  </g>
  <g id="Group_13" data-name="Group 13" transform="translate(32.904 9.454)">
    <g id="Group_12" data-name="Group 12">
      <ellipse id="Ellipse_4" data-name="Ellipse 4" cx="1.883" cy="1.883" rx="1.883" ry="1.883" fill="#21243d"/>
    </g>
  </g>
</svg>
